<?xml version="1.0" standalone="no"?>
<!DOCTYPE svg PUBLIC "-//W3C//DTD SVG 20010904//EN"
 "http://www.w3.org/TR/2001/REC-SVG-20010904/DTD/svg10.dtd">
<svg version="1.0" xmlns="http://www.w3.org/2000/svg"
 width="1308.000000pt" height="1309.000000pt" viewBox="0 0 1308.000000 1309.000000"
 preserveAspectRatio="xMidYMid meet">

<g transform="translate(0.000000,1309.000000) scale(0.100000,-0.100000)"
fill="#000000" stroke="none">
<path d="M4503 8523 c-40 -2 -73 -8 -73 -13 0 -26 103 -240 182 -378 198 -345
456 -673 838 -1065 245 -252 696 -670 761 -707 21 -12 202 135 347 282 l102
104 -167 56 c-301 100 -484 194 -614 316 -107 101 -131 167 -80 226 9 10 52
35 96 55 164 76 224 171 166 264 -53 87 -180 138 -476 193 -17 3 -20 9 -17 42
3 30 -2 45 -23 71 -59 70 -177 103 -365 104 -110 0 -134 -3 -205 -27 l-80 -27
-22 26 c-46 53 -23 109 61 145 88 37 154 45 384 45 l222 0 -6 80 c-4 44 -7 81
-8 82 -5 7 -306 68 -432 88 -180 28 -443 45 -591 38z m881 -513 c66 -25 106
-59 106 -89 0 -11 -11 -33 -25 -49 -14 -17 -21 -33 -16 -36 5 -4 49 -13 98
-21 237 -41 358 -86 413 -153 82 -99 -12 -191 -205 -200 -170 -7 -289 35 -361
130 -60 78 -169 169 -331 279 -73 50 -133 94 -133 99 0 13 50 38 112 55 81 23
266 15 342 -15z"/>
<path d="M5582 8303 l3 -78 55 -8 c178 -26 403 -66 690 -123 179 -35 377 -71
440 -79 119 -15 431 -38 437 -31 2 2 -40 9 -94 15 -309 38 -575 100 -993 231
-165 52 -453 134 -508 145 l-33 7 3 -79z"/>
<path d="M8319 7833 c-13 -16 -12 -17 4 -4 9 7 17 15 17 17 0 8 -8 3 -21 -13z"/>
<path d="M8249 7733 c-13 -16 -12 -17 4 -4 9 7 17 15 17 17 0 8 -8 3 -21 -13z"/>
<path d="M8223 7698 c-15 -20 -25 -38 -20 -38 3 0 12 11 21 25 17 26 16 35 -1
13z"/>
<path d="M7579 7643 c-13 -16 -12 -17 4 -4 9 7 17 15 17 17 0 8 -8 3 -21 -13z"/>
<path d="M7529 7573 c-13 -16 -12 -17 4 -4 9 7 17 15 17 17 0 8 -8 3 -21 -13z"/>
<path d="M8089 7503 c-13 -16 -12 -17 4 -4 9 7 17 15 17 17 0 8 -8 3 -21 -13z"/>
<path d="M8039 7433 c-13 -16 -12 -17 4 -4 9 7 17 15 17 17 0 8 -8 3 -21 -13z"/>
<path d="M7408 7408 c-99 -139 -296 -393 -417 -538 -539 -646 -958 -912 -1400
-887 -195 11 -344 67 -663 249 -395 224 -650 355 -843 431 -627 248 -1182 175
-1440 -188 -76 -107 -125 -224 -160 -380 -26 -114 -31 -405 -10 -561 56 -419
217 -777 443 -984 217 -199 482 -302 887 -346 185 -20 660 -14 855 10 426 54
775 143 1015 261 148 72 247 140 361 248 136 129 385 424 525 622 34 50 135
187 223 305 300 404 554 759 865 1208 51 73 94 139 97 146 11 28 -168 276
-270 375 -25 24 -43 48 -40 53 3 4 3 8 0 8 -3 0 -16 -14 -28 -32z m-3708
-1013 c344 -52 857 -278 1481 -651 176 -105 230 -152 265 -229 89 -195 9 -601
-150 -760 -61 -61 -125 -88 -259 -110 -447 -71 -1063 -64 -1397 17 -198 48
-380 147 -466 257 -165 207 -227 553 -167 921 38 234 137 425 257 495 118 69
255 88 436 60z"/>
<path d="M3355 6123 c-4 -25 -3 -49 2 -54 4 -4 71 -26 148 -47 147 -42 524
-153 855 -252 107 -32 334 -100 503 -150 169 -50 314 -93 321 -96 9 -3 15 5
18 25 l5 31 -101 31 c-56 17 -216 68 -356 114 -140 46 -392 127 -560 180 -370
117 -801 254 -816 260 -7 2 -15 -14 -19 -42z"/>
<path d="M3308 5791 c-3 -25 -3 -48 -2 -50 5 -5 470 -121 1109 -276 503 -122
716 -175 768 -191 14 -4 17 1 17 28 l0 33 -143 38 c-78 20 -261 68 -407 106
-282 74 -1107 294 -1252 334 l-86 25 -4 -47z"/>
<path d="M3290 5451 l0 -49 73 -16 c39 -9 128 -27 197 -40 389 -74 1242 -241
1403 -274 103 -21 190 -36 192 -33 3 2 5 17 5 32 0 21 -6 30 -22 34 -29 7
-622 132 -1038 220 -173 36 -424 91 -558 121 -134 30 -245 54 -248 54 -2 0 -4
-22 -4 -49z"/>
<path d="M3300 5106 c0 -31 2 -56 5 -56 10 0 548 -73 920 -125 215 -30 499
-69 632 -88 l242 -33 7 29 c3 16 4 30 2 31 -1 2 -79 15 -173 29 -525 81 -1618
258 -1627 264 -5 2 -8 -21 -8 -51z"/>
<path d="M7949 7303 c-13 -16 -12 -17 4 -4 9 7 17 15 17 17 0 8 -8 3 -21 -13z"/>
<path d="M5350 6906 c0 -2 8 -10 18 -17 15 -13 16 -12 3 4 -13 16 -21 21 -21
13z"/>
<path d="M4920 6627 c0 -1 35 -36 78 -77 l77 -75 -75 78 c-69 71 -80 82 -80
74z"/>
<path d="M5149 6396 c38 -40 43 -43 35 -23 -3 8 -19 24 -37 37 l-32 23 34 -37z"/>
<path d="M5900 6385 c13 -14 26 -25 28 -25 3 0 -5 11 -18 25 -13 14 -26 25
-28 25 -3 0 5 -11 18 -25z"/>
<path d="M5264 6283 c66 -68 73 -73 150 -94 123 -33 297 -38 406 -10 47 12 87
26 88 31 2 6 8 8 13 5 10 -7 129 34 129 44 0 4 -21 24 -47 46 -27 21 -42 32
-36 25 9 -10 10 -17 2 -27 -9 -10 -5 -15 15 -23 33 -12 33 -16 -6 -37 -41 -21
-58 -24 -58 -10 0 6 -6 3 -13 -8 -11 -14 -21 -16 -51 -11 -36 7 -37 8 -20 22
18 15 18 15 1 10 -10 -3 -34 -6 -53 -6 -19 0 -34 -5 -34 -11 0 -7 11 -9 26 -6
21 4 24 2 12 -8 -8 -8 -24 -11 -41 -8 -21 4 -25 8 -15 14 10 7 9 9 -5 9 -11 0
-15 4 -11 12 5 8 2 9 -9 5 -11 -4 -17 -1 -17 8 0 17 -9 19 -30 5 -13 -8 -13
-10 2 -10 11 0 15 -5 12 -15 -5 -11 -2 -13 10 -9 20 8 20 -5 1 -30 -13 -17
-15 -18 -15 -3 0 9 -5 17 -11 17 -6 0 -9 7 -5 15 7 20 -4 19 -34 -2 -32 -23
-70 -24 -70 -3 -1 13 -2 13 -10 -2 -6 -10 -18 -14 -31 -11 -15 4 -17 8 -8 14
8 4 10 12 5 16 -4 4 -14 -1 -22 -11 -12 -18 -19 -15 -15 7 0 4 -3 7 -9 7 -6 0
-10 -9 -10 -20 0 -12 -7 -20 -17 -20 -15 0 -16 2 -3 10 8 5 11 10 5 11 -29 5
-41 4 -48 -6 -5 -6 -7 -3 -3 8 4 13 0 17 -17 17 -18 0 -19 -2 -7 -10 8 -5 10
-10 4 -10 -22 0 -24 15 -3 31 19 14 20 17 5 22 -10 4 -15 3 -11 -3 3 -6 1 -10
-4 -10 -6 0 -11 4 -11 9 0 5 -8 8 -17 6 -10 -1 -24 2 -30 8 -7 5 -13 6 -13 2
0 -4 -7 -2 -15 5 -8 7 -12 17 -8 24 3 6 2 8 -2 3 -5 -4 -20 3 -34 15 -14 12 5
-10 43 -49z m52 -15 c5 4 6 3 2 -2 -4 -5 -3 -15 3 -23 21 -25 3 -13 -22 14
-13 15 -17 22 -8 15 9 -6 20 -8 25 -4z"/>
<path d="M5730 6256 c0 -9 7 -12 21 -9 16 4 17 8 7 14 -19 13 -28 11 -28 -5z"/>
<path d="M5965 6260 c-8 -13 5 -13 25 0 13 8 13 10 -2 10 -9 0 -20 -4 -23 -10z"/>
<path d="M5407 6246 c-4 -10 -1 -13 9 -9 7 3 14 9 14 14 0 14 -17 10 -23 -5z"/>
<path d="M7694 6028 l-19 -23 23 19 c12 11 22 21 22 23 0 8 -8 2 -26 -19z"/>
<path d="M8418 6005 c-21 -19 -34 -35 -30 -35 5 0 23 16 42 35 44 45 36 45
-12 0z"/>
<path d="M7639 5983 c-13 -17 -13 -17 6 -3 11 8 22 16 24 17 2 2 0 3 -6 3 -6
0 -17 -8 -24 -17z"/>
<path d="M7589 5943 c-13 -16 -12 -17 4 -4 16 13 21 21 13 21 -2 0 -10 -8 -17
-17z"/>
<path d="M8334 5928 l-19 -23 23 19 c21 18 27 26 19 26 -2 0 -12 -10 -23 -22z"/>
<path d="M7515 5889 c-27 -22 -58 -49 -67 -61 -10 -11 -18 -17 -18 -14 0 4
-34 -19 -75 -50 -41 -31 -75 -61 -75 -66 0 -7 5 -6 13 0 19 16 57 3 57 -19 0
-22 -45 -27 -53 -6 -3 8 -13 5 -35 -11 -22 -15 -30 -17 -26 -7 4 8 10 15 14
15 4 0 11 7 14 16 7 19 8 19 -128 -79 -60 -43 -116 -81 -123 -84 -8 -3 -26 6
-41 20 l-27 26 -110 -146 c-61 -81 -132 -176 -158 -212 l-49 -65 24 -18 c114
-93 332 -248 347 -248 14 0 280 184 446 309 266 199 692 547 682 557 -9 9 -37
-9 -37 -24 0 -8 -3 -12 -7 -9 -3 4 -16 -4 -28 -17 -46 -50 -122 -81 -122 -50
0 7 4 11 9 8 4 -3 8 6 8 20 0 23 -2 25 -42 20 -46 -6 -69 -17 -28 -14 45 4 66
0 52 -8 -7 -5 -14 -19 -17 -32 -5 -25 -15 -40 -15 -22 0 7 -13 12 -30 12 -16
0 -30 -3 -30 -7 0 -15 -72 -14 -84 1 -6 8 -35 16 -64 18 -47 5 -52 3 -47 -13
8 -23 -12 -34 -32 -17 -9 7 -30 14 -47 15 -17 2 -56 8 -86 14 -30 6 -67 11
-82 11 -16 -1 -28 4 -28 10 0 7 18 8 53 4 28 -4 74 -9 100 -11 26 -3 57 -10
69 -16 16 -9 22 -8 29 2 6 10 27 13 71 11 45 -2 59 0 48 8 -8 5 -29 10 -46 10
-17 0 -33 3 -37 6 -3 4 -25 8 -49 11 -24 2 -53 5 -66 6 -13 2 -26 8 -30 14 -8
13 -82 20 -99 10 -11 -7 -11 -1 2 41 8 24 30 30 39 10 5 -10 7 -10 12 0 3 6
16 12 29 12 13 0 26 4 29 9 3 4 -8 8 -24 7 -17 -1 -30 -5 -30 -10 0 -6 -5 -5
-11 1 -6 6 -19 9 -27 5 -9 -3 1 11 22 31 21 20 42 34 47 31 5 -3 8 -1 7 5 -2
5 13 23 32 40 51 44 34 37 -25 -10z m-125 -134 c0 -9 -6 -12 -16 -8 -13 5 -13
7 -2 14 17 11 18 11 18 -6z m-26 -44 c-3 -3 -9 1 -14 9 -7 10 -10 11 -10 3 0
-7 -5 -13 -10 -13 -6 0 -5 8 2 20 12 19 14 19 25 3 7 -9 10 -19 7 -22z m46
-21 c0 -5 -7 -10 -16 -10 -8 0 -12 5 -9 10 3 6 10 10 16 10 5 0 9 -4 9 -10z
m110 -10 c11 -8 7 -9 -15 -4 -37 8 -45 14 -19 14 10 0 26 -5 34 -10z m67 -14
c0 -8 -6 -12 -15 -9 -11 5 -11 7 0 14 7 5 13 9 14 9 0 0 1 -6 1 -14z m-303
-24 c3 -5 -1 -9 -9 -9 -8 0 -12 4 -9 9 3 4 7 8 9 8 2 0 6 -4 9 -8z m96 -12 c0
-5 -7 -10 -16 -10 -8 0 -12 5 -9 10 3 6 10 10 16 10 5 0 9 -4 9 -10z m140 -12
c12 -8 11 -8 -3 -4 -10 3 -43 6 -73 6 -30 0 -54 5 -54 10 0 12 107 2 130 -12z
m218 5 c-10 -2 -26 -2 -35 0 -10 3 -2 5 17 5 19 0 27 -2 18 -5z m-33 -23 c-3
-5 -13 -10 -21 -10 -8 0 -14 5 -14 10 0 6 9 10 21 10 11 0 17 -4 14 -10z
m-228 -36 c-3 -3 -12 -4 -19 -1 -8 3 -5 6 6 6 11 1 17 -2 13 -5z m0 -30 c-3
-3 -12 -4 -19 -1 -8 3 -5 6 6 6 11 1 17 -2 13 -5z"/>
<path d="M8234 5838 l-29 -33 33 29 c30 28 37 36 29 36 -2 0 -16 -15 -33 -32z"/>
<path d="M8169 5783 c-13 -16 -12 -17 4 -4 9 7 17 15 17 17 0 8 -8 3 -21 -13z"/>
<path d="M7972 5671 c-11 -7 -11 -9 0 -13 17 -6 38 1 38 13 0 11 -21 11 -38 0z"/>
<path d="M7858 5653 c6 -2 18 -2 25 0 6 3 1 5 -13 5 -14 0 -19 -2 -12 -5z"/>
<path d="M7765 5640 c3 -5 12 -10 20 -10 8 0 17 5 20 10 4 6 -5 10 -20 10 -15
0 -24 -4 -20 -10z"/>
<path d="M7620 5620 c0 -5 5 -10 10 -10 6 0 10 5 10 10 0 6 -4 10 -10 10 -5 0
-10 -4 -10 -10z"/>
<path d="M2220 3450 c-174 -37 -313 -191 -340 -378 -31 -219 89 -420 288 -483
91 -28 223 -29 312 0 64 20 193 91 191 104 0 4 -1 90 -1 192 l0 185 -180 0
-180 0 0 -65 0 -64 108 -3 107 -3 3 -91 3 -91 -53 -24 c-44 -20 -70 -24 -148
-24 -87 0 -100 3 -149 30 -97 54 -151 150 -151 269 0 164 83 275 235 313 60
15 70 15 133 -1 37 -9 88 -29 113 -45 l46 -28 47 53 47 54 -53 34 c-29 18 -76
41 -103 51 -58 20 -210 28 -275 15z"/>
<path d="M3438 3450 c-221 -38 -386 -273 -350 -502 24 -157 121 -286 259 -344
61 -25 80 -28 183 -29 112 0 117 1 191 36 280 134 344 474 133 707 -101 113
-250 160 -416 132z m218 -156 c58 -27 120 -97 143 -160 26 -68 28 -171 4 -240
-24 -71 -112 -157 -183 -178 -115 -34 -207 -11 -289 72 -123 124 -127 313 -11
446 78 89 221 114 336 60z"/>
<path d="M4430 3016 l0 -423 68 -6 c37 -4 172 -7 300 -7 l233 0 -3 68 -3 67
-222 3 -223 2 0 360 0 360 -75 0 -75 0 0 -424z"/>
<path d="M5430 3013 l0 -428 70 -1 70 -1 0 179 0 178 230 0 230 0 0 65 0 65
-230 0 -230 0 0 114 0 113 83 6 c45 4 157 7 250 7 l167 0 0 65 0 65 -320 0
-320 0 0 -427z"/>
</g>
</svg>
